<svg id="Layer_1" enable-background="new 0 0 256 256" height="512" viewBox="0 0 256 256" width="512" xmlns="http://www.w3.org/2000/svg"><g id="Layer_81"><g><path d="m241.4 205.9h-226.8c-6.7 0-12.1-5.4-12.1-12.1v-150c0-6.7 5.4-12.1 12.1-12.1h226.7c6.7 0 12.1 5.4 12.1 12.1v150c.1 6.6-5.3 12-12 12.1z" fill="#3a70bf"/><path d="m242.8 181.7v-138c0-.8-.6-1.4-1.4-1.4h-226.8c-.8 0-1.4.6-1.4 1.4v138z" fill="#9be5f9"/><path d="m161.3 235.4h-66.6c-3.3 0-5.9 2.7-5.8 6 0 3.2 2.6 5.8 5.8 5.8h66.5c3.3 0 5.9-2.7 5.8-6 0-3.2-2.5-5.8-5.7-5.8z" fill="#edf4fc"/><path d="m102.3 205.9h51.5v29.5h-51.5z" fill="#c7d7e5"/><path d="m2.5 181.7v12c0 6.7 5.4 12.1 12.1 12.1h226.7c6.7 0 12.1-5.4 12.1-12.1v-12z" fill="#edf4fc"/><path d="m13.2 170.8h229.5v10.9h-229.5z" fill="#3caadc"/><path d="m13.2 170.8h22.3v10.9h-22.3z" fill="#f5c84c"/><path d="m101.1 11.2h-2.1v-2c0-1.5-1.3-2.8-2.8-2.8s-2.8 1.3-2.8 2.8v2.1h-2.1c-1.5 0-2.8 1.3-2.8 2.8s1.3 2.8 2.8 2.8h2.1v2.1c0 1.5 1.3 2.8 2.8 2.8s2.8-1.3 2.8-2.8v-2.1h2.1c1.5 0 2.8-1.3 2.8-2.8 0-1.6-1.2-2.9-2.8-2.9z" fill="#f5c84c"/><path d="m202.7 235.2c-4-.7-7.1-3.8-7.9-7.7 0-.1-.1-.2-.2-.1-.1 0-.1.1-.1.1-.8 4-3.9 7-7.9 7.7-.1 0-.2.1-.1.2 0 .1.1.1.1.1 4 .7 7.1 3.8 7.9 7.7 0 .1.1.2.2.1.1 0 .1-.1.1-.1.8-4 3.9-7 7.9-7.7.1 0 .2-.1.1-.2.1 0 0 0-.1-.1z" fill="#ef4460"/><circle cx="141" cy="9.3" fill="#87d147" r="3"/><circle cx="72" cy="227" fill="#5290db" r="3"/><circle cx="178" cy="220.3" fill="#f5c84c" r="3"/><path d="m143.9 154c0-3.1-2.5-5.6-5.6-5.6h-20.7c-3.1 0-5.6 2.5-5.6 5.6s2.5 5.6 5.6 5.6h20.7c3.1-.1 5.6-2.6 5.6-5.6z" fill="#3caadc"/><g fill="#fff"><path d="m96.1 92.5c.8-5.4 2.9-10.5 6.1-14.8l-6.6-6.6c-4.9 6.1-8 13.6-8.9 21.4z"/><path d="m108.6 71.2c4.3-3.3 9.4-5.4 14.8-6.1v-9.3c-7.8.9-15.3 3.9-21.4 8.9z"/><path d="m102.2 116.4c-3.3-4.3-5.4-9.4-6.1-14.8h-9.3c.9 7.8 3.9 15.3 8.9 21.4z"/><path d="m123.5 128.9c-5.4-.8-10.5-2.9-14.8-6.1l-6.6 6.6c6.1 4.9 13.6 8 21.4 8.9z"/></g><path d="m132.5 55.8v9.3c5.4.8 10.5 2.9 14.8 6.1l6.6-6.6c-6.1-4.9-13.5-8-21.4-8.8z" fill="#87d147"/><path d="m159.9 101.5c-.8 5.4-2.9 10.5-6.1 14.8l6.6 6.6c4.9-6.1 8-13.6 8.9-21.4z" fill="#87d147"/><path d="m153.8 77.6c3.3 4.3 5.4 9.4 6.1 14.8h9.3c-.9-7.8-3.9-15.3-8.9-21.4z" fill="#87d147"/><path d="m147.4 122.8c-4.3 3.3-9.4 5.4-14.8 6.1v9.3c7.8-.9 15.3-3.9 21.4-8.9z" fill="#fff"/><path d="m111.5 83.8-.5.2v8.9c0 1.9.2 3.9.6 5.7h16.4v-23.9c-.6.4-3.5 5.2-16.5 9.1z" fill="#f5c84c"/><path d="m144.4 98.7c.4-1.9.6-3.8.6-5.7v-9l-.5-.1c-13.2-3.9-15.9-8.7-16.5-9.1v23.9z" fill="#3caadc"/><path d="m111.6 98.7c1.8 8.5 7.2 15.9 14.8 20.2.5.3 1.1.4 1.6.4v-20.6z" fill="#3caadc"/><path d="m128 119.3c.6 0 1.1-.2 1.6-.4 7.6-4.3 13-11.6 14.8-20.2h-16.4z" fill="#f5c84c"/><path d="m241.4 29h-226.8c-8 .1-14.6 6.6-14.6 14.7v150c0 8.1 6.6 14.6 14.6 14.6h85.1v24.5h-5c-4.6 0-8.4 3.8-8.4 8.4s3.8 8.4 8.4 8.4h66.5c4.6 0 8.4-3.8 8.4-8.4s-3.8-8.4-8.4-8.4h-5v-24.5h85.1c8.1 0 14.6-6.6 14.6-14.6v-150c.1-8.1-6.5-14.6-14.5-14.7zm-80.1 208.9c1.9 0 3.4 1.5 3.4 3.4s-1.5 3.4-3.4 3.4h-66.6c-1.9 0-3.4-1.5-3.4-3.4s1.5-3.4 3.4-3.4zm-56.5-5v-24.5h46.5v24.5zm146.2-39.2c0 5.3-4.3 9.6-9.6 9.6h-226.8c-5.3 0-9.6-4.3-9.6-9.6v-9.5h246zm-235.3-25.3v-123.6h224.5v123.6zm224.6 5v5.9h-202.3v-5.9zm-207.3 0v5.9h-17.3v-5.9zm218 5.8h-5.7v-135.5c0-2.2-1.7-3.9-3.9-3.9h-226.8c-2.2 0-3.9 1.7-3.9 3.9v135.5h-5.7v-135.5c0-5.3 4.3-9.6 9.6-9.6h226.7c5.3 0 9.6 4.3 9.6 9.6v135.5z"/><path d="m130.9 191h-5.7c-1.4 0-2.5 1.1-2.5 2.5s1.1 2.5 2.5 2.5h5.7c1.4 0 2.5-1.1 2.5-2.5s-1.2-2.5-2.5-2.5z"/><path d="m138.4 145.9h-20.7c-4.5 0-8.1 3.6-8 8.1 0 4.4 3.6 8 8 8h20.7c4.5 0 8.1-3.6 8-8.1 0-4.4-3.6-8-8-8zm0 11.1h-20.7c-1.7 0-3.1-1.4-3.1-3.1s1.4-3.1 3.1-3.1h20.7c1.7 0 3.1 1.4 3.1 3.1-.1 1.8-1.4 3.1-3.1 3.1z"/><path d="m86.8 95h9.3c1.2 0 2.3-.9 2.5-2.2.7-5 2.6-9.7 5.7-13.7.7-1 .7-2.4-.2-3.3l-6.6-6.6c-1-1-2.6-1-3.5 0-.1.1-.1.1-.2.2-5.2 6.5-8.5 14.4-9.4 22.7-.1 1.4.8 2.6 2.2 2.8 0 .1.1.1.2.1zm9.1-20.1 3.1 3.1c-2.4 3.7-4.1 7.7-5 12h-4.3c.9-5.5 3.1-10.6 6.2-15.1z"/><path d="m106.9 73c.9.9 2.3 1 3.3.2 4-3 8.7-5 13.7-5.7 1.2-.2 2.2-1.2 2.2-2.5v-9.3c0-1.4-1.1-2.5-2.5-2.5-.1 0-.2 0-.3 0-8.3.9-16.2 4.2-22.7 9.4-1.1.9-1.2 2.4-.4 3.5l.2.2zm14.1-14.3v4.3c-4.3.9-8.4 2.6-12 5l-3.1-3.1c4.5-3.1 9.6-5.3 15.1-6.2z"/><path d="m104.2 114.9c-3-4-5-8.7-5.7-13.7-.2-1.2-1.2-2.2-2.5-2.2h-9.3c-1.4 0-2.5 1.1-2.5 2.5v.3c.9 8.3 4.2 16.2 9.4 22.7.9 1.1 2.4 1.2 3.5.4.1-.1.1-.1.2-.2l6.6-6.6c1-.9 1.1-2.3.3-3.2zm-8.3 4.2c-3.1-4.5-5.3-9.7-6.3-15.1h4.4c.9 4.3 2.6 8.4 5 12z"/><path d="m132.2 67.6c5 .7 9.7 2.6 13.7 5.7 1 .7 2.4.7 3.3-.2l6.6-6.6c1-1 1-2.6 0-3.5-.1-.1-.1-.1-.2-.2-6.5-5.2-14.4-8.5-22.7-9.4-1.4-.1-2.6.8-2.8 2.2v.3 9.3c-.1 1.1.9 2.2 2.1 2.4zm2.8-8.9c5.4 1 10.6 3.1 15.1 6.3l-3.1 3.1c-3.7-2.4-7.7-4.1-12-5z"/><path d="m169.2 99h-9.3c-1.2 0-2.3.9-2.5 2.2-.7 5-2.6 9.7-5.7 13.7-.7 1-.7 2.4.2 3.3l6.6 6.6c1 1 2.6 1 3.5 0 .1-.1.1-.1.2-.2 5.2-6.5 8.5-14.4 9.4-22.7.1-1.4-.8-2.6-2.2-2.8 0-.1-.1-.1-.2-.1zm-9.1 20.1-3.1-3.1c2.4-3.7 4.1-7.7 5-12h4.3c-.9 5.5-3.1 10.6-6.2 15.1z"/><path d="m126 138.2v-9.3c0-1.2-.9-2.3-2.2-2.5-5-.7-9.7-2.6-13.7-5.7-1-.7-2.4-.6-3.3.2l-6.6 6.6c-1 1-1 2.6 0 3.5l.2.2c6.5 5.2 14.4 8.5 22.7 9.4 1.4.1 2.6-.8 2.8-2.2.1 0 .1-.1.1-.2zm-5-2.9c-5.4-1-10.6-3.1-15.1-6.3l3.1-3.1c3.7 2.4 7.7 4.1 12 5z"/><path d="m162.3 69.5c-.9-1.1-2.4-1.2-3.5-.4-.1.1-.1.1-.2.2l-6.6 6.6c-.9.9-1 2.3-.2 3.3 3 4 5 8.7 5.7 13.7.2 1.2 1.2 2.2 2.5 2.2h9.3c1.4 0 2.5-1.1 2.5-2.5 0-.1 0-.2 0-.3-1-8.4-4.2-16.3-9.5-22.8zm-.3 20.5c-.9-4.3-2.6-8.4-5-12l3.1-3.1c3.1 4.5 5.3 9.7 6.3 15.1z"/><path d="m149.1 121c-.9-.9-2.3-1-3.3-.2-4 3-8.7 5-13.7 5.7-1.2.2-2.2 1.2-2.1 2.5v9.3c0 1.4 1.1 2.5 2.5 2.5h.3c8.3-.9 16.2-4.2 22.7-9.4 1.1-.9 1.2-2.4.4-3.5-.1-.1-.1-.1-.2-.2zm-14.1 14.3v-4.3c4.3-.9 8.4-2.6 12-5l3.1 3.1c-4.5 3.1-9.6 5.3-15.1 6.2z"/><path d="m110.8 81.4c-1.3.2-2.2 1.3-2.3 2.5v8.9c0 11.9 6.7 22.3 16.6 28.1 1.8 1 4 1 5.8 0 9.9-5.8 16.6-16.2 16.6-28.1v-8.8c0-1.3-1-2.4-2.3-2.5-7.1-2.1-12.2-4.8-15-8-.5-.7-1.3-1.2-2.2-1.2s-1.7.5-2.2 1.2c-2.9 3.1-8 5.8-15 7.9zm14.7 33.9c-5-3.4-8.8-8.4-10.7-14.2h10.7zm0-19.1h-11.8c-.1-1.1-.2-2.2-.2-3.2v-7.1c4.3-1.3 8.3-3.1 12-5.6zm5-15.9c3.7 2.4 7.8 4.3 12 5.5v7.1c0 1.1-.1 2.2-.2 3.2h-11.8zm0 20.9h10.7c-1.9 5.8-5.7 10.7-10.7 14.2z"/></g></g></svg>