<?xml version="1.0" encoding="iso-8859-1"?>
<!-- Generator: Adobe Illustrator 19.0.0, SVG Export Plug-In . SVG Version: 6.00 Build 0)  -->
<svg version="1.1" id="Capa_1" xmlns="http://www.w3.org/2000/svg" xmlns:xlink="http://www.w3.org/1999/xlink" x="0px" y="0px"
	 viewBox="0 0 512.011 512.011" style="enable-background:new 0 0 512.011 512.011;" xml:space="preserve">
<g>
	
		<rect x="248.351" y="115.691" transform="matrix(-0.7069 -0.7073 0.7073 -0.7069 340.8991 460.0122)" style="fill:#28384C;" width="34.817" height="87.368"/>
	
		<rect x="334.568" y="29.641" transform="matrix(-0.7069 -0.7073 0.7073 -0.7069 550.1954 374.6385)" style="fill:#28384C;" width="36.302" height="87.368"/>
</g>
<path style="fill:#556080;" d="M447.587,113.39l-49.402-49.445l52.935-52.969c3.362-3.362,8.807-3.362,12.169,0l37.25,37.284
	c3.354,3.354,3.354,8.798,0,12.161L447.587,113.39z"/>
<rect x="226.333" y="-2.033" transform="matrix(-0.7068 -0.7074 0.7074 -0.7068 310.9661 594.8527)" style="fill:#7383BF;" width="104.845" height="470.035"/>
<polygon style="fill:#556080;" points="63.218,473.395 38.513,448.673 75.566,362.141 149.674,436.308 "/>
<path style="fill:#28384C;" d="M14.089,498.399l-0.572-0.572c-6.656-6.665-6.656-17.46,0-24.125l25.004-25.021l24.705,24.722
	l-24.978,25.004C31.575,505.064,20.754,505.064,14.089,498.399z"/>
<g>
	
		<rect x="163.953" y="269.18" transform="matrix(-0.7068 -0.7074 0.7074 -0.7068 160.35 657.2414)" style="fill:#556080;" width="104.845" height="52.422"/>
	
		<rect x="299.811" y="133.192" transform="matrix(-0.7068 -0.7074 0.7074 -0.7068 488.4311 521.2418)" style="fill:#556080;" width="104.845" height="52.422"/>
</g>
<path style="fill:#EBBA16;" d="M463.375,122.325l-24.705,24.722l14.661,14.678c5.547,5.547,5.547,14.55,0,20.097L321.347,313.934
	c-6.818,6.827-6.818,17.895,0,24.722l0,0c6.818,6.827,17.878,6.827,24.705,0l142.036-142.164l8.841-8.85
	c8.764-8.773,8.764-22.99,0-31.754L463.375,122.325z"/>
<g>
	<path style="fill:#4D007E;" d="M149.674,444.841c-2.261,0-4.438-0.896-6.042-2.5l-74.107-74.167c-3.328-3.337-3.328-8.73,0-12.067
		L401.761,23.581c3.2-3.2,8.875-3.2,12.075,0l74.107,74.167c3.328,3.337,3.328,8.73,0,12.067L155.716,442.341
		C154.111,443.937,151.935,444.841,149.674,444.841z M87.633,362.141l62.04,62.092l320.17-320.451l-62.04-62.092L87.633,362.141z"/>
	<path style="fill:#4D007E;" d="M63.218,481.929c-2.219,0-4.403-0.87-6.042-2.5l-24.705-24.714
		c-2.466-2.466-3.183-6.187-1.809-9.396l37.054-86.541c1.118-2.611,3.448-4.48,6.23-5.026c2.782-0.529,5.649,0.35,7.646,2.347
		l74.107,74.167c1.997,2.005,2.876,4.864,2.338,7.646c-0.538,2.773-2.415,5.112-5.018,6.221L66.58,481.238
		C65.497,481.699,64.353,481.929,63.218,481.929z M48.634,446.727l16.538,16.538l69.567-29.834l-56.289-56.34L48.634,446.727z"/>
	<path style="fill:#4D007E;" d="M26.165,511.934L26.165,511.934c-6.836,0-13.261-2.663-18.1-7.501l-0.58-0.572
		c-9.976-9.993-9.976-26.216-0.017-36.2l25.004-25.021c3.2-3.2,8.875-3.2,12.075,0l24.705,24.714c3.328,3.337,3.328,8.73,0,12.067
		l-24.97,25.004C39.443,509.271,33.009,511.934,26.165,511.934z M38.513,460.748l-18.962,18.979c-3.32,3.328-3.32,8.73,0,12.058
		l-5.462,6.605l6.042-6.033c1.613,1.613,3.755,2.509,6.033,2.509l0,0c2.279,0,4.42-0.888,6.033-2.509l18.953-18.971L38.513,460.748z
		"/>
	<path style="fill:#4D007E;" d="M241.062,205.026c-2.261,0-4.438-0.896-6.033-2.5l-18.527-18.544c-3.328-3.337-3.328-8.73,0-12.067
		l61.759-61.81c3.2-3.2,8.875-3.2,12.075,0l18.527,18.544c3.328,3.337,3.328,8.73,0,12.067l-61.75,61.81
		C245.499,204.13,243.332,205.026,241.062,205.026z M234.602,177.957l6.469,6.469l49.692-49.735l-6.46-6.469L234.602,177.957z"/>
	<path style="fill:#4D007E;" d="M327.517,118.493L327.517,118.493c-2.261,0-4.438-0.896-6.042-2.5l-18.518-18.544
		c-3.328-3.337-3.328-8.73,0-12.067l61.75-61.801c3.2-3.2,8.875-3.2,12.075,0l18.527,18.544c3.328,3.337,3.328,8.73,0,12.067
		l-61.759,61.801C331.955,117.589,329.787,118.493,327.517,118.493z M321.057,91.416l6.46,6.469l49.692-49.726l-6.469-6.469
		L321.057,91.416z"/>
	<path style="fill:#4D007E;" d="M469.553,99.95L469.553,99.95c-2.261,0-4.438-0.896-6.042-2.5l-49.402-49.445
		c-3.328-3.337-3.328-8.73,0-12.067l30.969-30.995c6.46-6.486,17.767-6.494,24.244,0.009l37.241,37.267
		c6.673,6.682,6.673,17.545,0,24.227l-30.986,31.003C473.991,99.045,471.815,99.95,469.553,99.95z M432.226,41.98l37.327,37.361
		l24.944-24.961l-37.25-37.369L432.226,41.98z"/>
	<path style="fill:#4D007E;" d="M234.892,359.555c-2.261,0-4.438-0.896-6.042-2.5l-74.107-74.167c-3.328-3.337-3.328-8.73,0-12.067
		l37.054-37.088c3.2-3.2,8.875-3.2,12.075,0l74.107,74.167c3.328,3.337,3.328,8.73,0,12.067l-37.054,37.088
		C239.321,358.651,237.153,359.555,234.892,359.555z M172.843,276.846l62.04,62.092l24.987-25.012l-62.04-62.092L172.843,276.846z"
		/>
	<path style="fill:#4D007E;" d="M370.749,223.57L370.749,223.57c-2.261,0-4.438-0.896-6.042-2.5L290.6,146.902
		c-3.328-3.337-3.328-8.73,0-12.067l37.054-37.088c3.2-3.2,8.875-3.2,12.075,0l74.107,74.167c3.328,3.337,3.328,8.73,0,12.067
		l-37.054,37.088C375.178,222.674,373.011,223.57,370.749,223.57z M308.709,140.869l62.04,62.092l24.987-25.012l-62.04-62.092
		L308.709,140.869z"/>
	<path style="fill:#4D007E;" d="M333.696,352.31c-6.946,0-13.483-2.705-18.39-7.638c-10.13-10.138-10.13-26.634,0-36.781
		l131.992-132.103c2.219-2.219,2.219-5.82,0-8.03l-14.661-14.678c-3.328-3.337-3.328-8.73,0-12.067l24.705-24.714
		c1.604-1.604,3.772-2.5,6.033-2.5l0,0c2.261,0,4.438,0.896,6.042,2.5l33.538,33.572c12.075,12.084,12.075,31.737,0,43.821
		L352.086,344.689C347.17,349.605,340.642,352.31,333.696,352.31z M450.736,147.039l8.636,8.645c8.858,8.867,8.858,23.297,0,32.172
		L327.381,319.967c-3.49,3.482-3.49,9.165,0,12.647c3.379,3.379,9.251,3.379,12.621,0.009l150.877-151.013
		c5.427-5.427,5.427-14.26,0-19.687l-27.504-27.53L450.736,147.039z"/>
</g>
<g>
</g>
<g>
</g>
<g>
</g>
<g>
</g>
<g>
</g>
<g>
</g>
<g>
</g>
<g>
</g>
<g>
</g>
<g>
</g>
<g>
</g>
<g>
</g>
<g>
</g>
<g>
</g>
<g>
</g>
</svg>
