<svg height="512" viewBox="0 0 512 512" width="512" xmlns="http://www.w3.org/2000/svg"><g><g fill="#57a4ff"><path d="m112 148.8v102.4l-96-51.2z"/><path d="m496 200-96 51.2v-102.4z"/><path d="m144 104h224v32h-224z"/><path d="m144 104h224v32h-224z"/></g><g fill="#004fac"><path d="m499.76 192.94-91.76-48.94v-80a8 8 0 0 0 -8-8h-288a8 8 0 0 0 -8 8v80l-91.76 48.94a8.005 8.005 0 0 0 -4.24 7.06v256a8 8 0 0 0 8 8h480a8 8 0 0 0 8-8v-256a8.005 8.005 0 0 0 -4.24-7.06zm-91.76-30.81 71 37.87-71 37.87zm-288-90.13h272v174.4l-136 72.53-136-72.53zm-16 90.13v75.74l-71-37.87zm-80 51.2 155.7 83.04-155.7 141.55zm12.69 234.67 158-143.63 57.55 30.69a7.99 7.99 0 0 0 7.52 0l57.55-30.69 158 143.63zm451.31-10.08-155.7-141.55 155.7-83.04z"/><path d="m176 424h-96a8 8 0 0 0 0 16h96a8 8 0 0 0 0-16z"/><path d="m208 424h-8a8 8 0 0 0 0 16h8a8 8 0 0 0 0-16z"/><path d="m144 176h120a8 8 0 0 0 0-16h-120a8 8 0 0 0 0 16z"/><path d="m144 200h48a8 8 0 0 0 0-16h-48a8 8 0 0 0 0 16z"/><path d="m224 184h-8a8 8 0 0 0 0 16h8a8 8 0 0 0 0-16z"/><path d="m144 144h224a8 8 0 0 0 8-8v-32a8 8 0 0 0 -8-8h-224a8 8 0 0 0 -8 8v32a8 8 0 0 0 8 8zm8-32h208v16h-208z"/></g></g></svg>