<svg height="512pt" viewBox="0 0 512 512" width="512pt" xmlns="http://www.w3.org/2000/svg"><path d="m272 121h-90v-91h90zm0 0" fill="#979fef"/><path d="m302 30v91h90v-91zm0 0" fill="#979fef"/><path d="m512 121h-90v-91h90zm0 0" fill="#7984eb"/><path d="m272 241h-90v-90h90zm0 0" fill="#979fef"/><path d="m302 151v90h90v-90zm0 0" fill="#979fef"/><path d="m512 241h-90v-90h90zm0 0" fill="#7984eb"/><path d="m272 361h-90v-90h90zm0 0" fill="#979fef"/><path d="m302 271v90h90v-90zm0 0" fill="#979fef"/><path d="m512 361h-90v-90h90zm0 0" fill="#7984eb"/><path d="m182 391v91h330v-91zm0 0" fill="#979fef"/><g fill="#7984eb"><path d="m347 30h45v91h-45zm0 0"/><path d="m347 151h45v90h-45zm0 0"/><path d="m347 271h45v90h-45zm0 0"/><path d="m347 391h165v91h-165zm0 0"/></g><path d="m152 151v-151h-62l-30 83.75 30 67.25zm0 0" fill="#3e5959"/><path d="m152 361h-62l-30 93.5 30 57.5h62zm0 0" fill="#3e5959"/><path d="m60 361v-210h30v-151h-30c-33.089844 0-60 26.910156-60 60v392c0 33.089844 26.910156 60 60 60h30v-151zm0 0" fill="#ff7816"/></svg>