<svg id="Capa_1" enable-background="new 0 0 512 512" height="512" viewBox="0 0 512 512" width="512" xmlns="http://www.w3.org/2000/svg"><g><path d="m256 330h-45v167c0 8.284 6.716 15 15 15h30 30c8.284 0 15-6.716 15-15v-167z" fill="#dce7f5"/><path d="m301 497v-167h-45v182h30c8.284 0 15-6.716 15-15z" fill="#c8d6ef"/><path d="m451 45v300c0 24.901-20.099 45-45 45h-300c-24.901 0-45-20.099-45-45v-300c0-24.901 20.099-45 45-45h300c24.901 0 45 20.099 45 45z" fill="#64c7f3"/><path d="m451 45v300c0 24.901-20.099 45-45 45h-150v-390h150c24.901 0 45 20.099 45 45z" fill="#408af2"/><path d="m372.851 259.351-39.258-39.258c-5.859-5.859-15.352-5.859-21.211 0l-26.748 26.733c-10.629-5.081-20.396-11.303-29.634-18.14-23.331-17.269-42.2-39.681-55.034-66.513l26.748-26.748c5.856-5.856 5.859-15.352 0-21.211l-39.272-39.272c-5.859-5.859-15.352-5.859-21.211 0l-19.512 19.512c-19.028 19.043-26.294 44.707-18.53 65.347 17.65 47.06 53.754 107.64 126.812 145.248 10.195 5.248 21.066 10.078 32.754 14.332 21.839 7.925 47.595-2.335 64.219-18.94l19.878-19.878c5.858-5.861 5.858-15.353-.001-21.212z" fill="#ecf7fe"/><path d="m352.973 300.439 19.878-19.878c5.859-5.859 5.859-15.352 0-21.211l-39.258-39.258c-5.859-5.859-15.352-5.859-21.211 0l-26.748 26.733c-10.629-5.081-20.396-11.303-29.634-18.14v76.362c10.195 5.248 21.066 10.078 32.754 14.332 21.839 7.926 47.595-2.334 64.219-18.94z" fill="#dce7f5"/></g></svg>